HIERARCHY
ROOT ui
{
	 OFFSET 0 0 0
	 CHANNELS 3 XPosition YPosition Z Position
	 EndSite
	 {
	 OFFSET 0 -1 0
	 }
}
ROOT li
{
	 OFFSET 0 0 0
	 CHANNELS 3 XPosition YPosition Z Position
	 EndSite
	 {
	 OFFSET 0 -1 0
	 }
}
ROOT ul
{
	 OFFSET 0 0 0
	 CHANNELS 3 XPosition YPosition Z Position
	 EndSite
	 {
	 OFFSET 0 -1 0
	 }
}
ROOT ll
{
	 OFFSET 0 0 0
	 CHANNELS 3 XPosition YPosition Z Position
	 EndSite
	 {
	 OFFSET 0 -1 0
	 }
}
ROOT tt
{
	 OFFSET 0 0 0
	 CHANNELS 3 XPosition YPosition Z Position
	 EndSite
	 {
	 OFFSET 0 -1 0
	 }
}
ROOT tb
{
	 OFFSET 0 0 0
	 CHANNELS 3 XPosition YPosition Z Position
	 EndSite
	 {
	 OFFSET 0 -1 0
	 }
}
ROOT td
{
	 OFFSET 0 0 0
	 CHANNELS 3 XPosition YPosition Z Position
	 EndSite
	 {
	 OFFSET 0 -1 0
	 }
}
ROOT v
{
	 OFFSET 0 0 0
	 CHANNELS 3 XPosition YPosition Z Position
	 EndSite
	 {
	 OFFSET 0 -1 0
	 }
}
ROOT bn
{
	 OFFSET 0 0 0
	 CHANNELS 3 XPosition YPosition Z Position
	 EndSite
	 {
	 OFFSET 0 -1 0
	 }
}
MOTION
Frames: 29
Frame Time: 0.002
9.557250142097474E-4	0.002713376998901367	0		0.4561040954589844	-2.35760546875	0		-0.9431867065429688	0.31547540283203124	0		-0.6221021728515626	-2.698629150390625	0		1.62836376953125	-0.5003880920410156	0		3.20162451171875	0.06005781936645508	0		4.41452685546875	0.15182276916503906	0		5.93852880859375	0.4687146911621094	0		-0.26458236694335935	5.88142626953125	0		
0.004765299797058106	0.005655792236328125	0		0.448979736328125	-2.34656298828125	0		-0.8694067993164063	0.31477249145507813	0		-0.560295654296875	-2.69522216796875	0		1.6681329345703124	-0.5017851257324218	0		3.22569287109375	0.09080200958251954	0		4.43037353515625	0.1586377410888672	0		5.9383125	0.4686727294921875	0		-0.26477908325195315	5.88140673828125	0		
0.019454906463623047	-0.004515697002410888	0		0.4696602783203125	-2.356791748046875	0		-0.88364990234375	0.3118729248046875	0		-0.6464263305664063	-2.684455810546875	0		1.636906005859375	-0.5025366516113281	0		3.1962548828125	0.067027099609375	0		4.41710205078125	0.15270916748046875	0		5.92894921875	0.45270184326171875	0		-0.26991824340820314	5.88742138671875	0		
-0.0027275540828704836	-0.0013586390018463135	0		0.44246954345703127	-2.353590087890625	0		-0.8888968505859375	0.3078758239746094	0		-0.5856220092773438	-2.68206640625	0		1.6477017822265625	-0.5016914672851562	0		3.1951552734375	0.0789775161743164	0		4.4209560546875	0.15960902404785157	0		5.9338134765625	0.46058694458007815	0		-0.2360633544921875	5.8920595703125	0		
-0.0069577240943908695	-0.004383705139160156	0		0.4142791748046875	-2.35139404296875	0		-0.8931353149414063	0.3038536682128906	0		-0.6448399658203126	-2.6825791015625	0		1.6075179443359375	-0.4993880310058594	0		3.199887939453125	0.07185869598388672	0		4.42075439453125	0.15953231811523438	0		5.9246220703125	0.46158880615234377	0		-0.280448974609375	5.8704072265625	0		
-8.451399952173233E-5	0.002472340106964111	0		0.446098388671875	-2.34977099609375	0		-0.8842520751953125	0.31169354248046877	0		-0.6410018920898437	-2.678693359375	0		1.610352783203125	-0.4964991455078125	0		3.204937744140625	0.09772361755371094	0		4.39962890625	0.16663604736328125	0		5.933580078125	0.4774094848632813	0		-0.300576904296875	5.87551513671875	0		
0.0037655301094055176	0.005339459896087646	0		0.439018310546875	-2.338802978515625	0		-0.8844290771484375	0.31159979248046876	0		-0.6460455932617187	-2.663741943359375	0		1.6332010498046876	-0.49381179809570314	0		3.188575439453125	0.07777078247070313	0		4.428515625	0.17326173400878905	0		5.9414033203125	0.47722726440429686	0		-0.2656881408691406	5.8810947265625	0		
-0.007487534999847412	-0.004671239852905273	0		0.46178915405273435	-2.346130126953125	0		-0.8996259155273437	0.30762692260742186	0		-0.5793048706054688	-2.674476318359375	0		1.6201146240234374	-0.48580642700195314	0		3.2215712890625	0.09434695434570313	0		4.42128076171875	0.16520912170410157	0		5.93632666015625	0.48615374755859375	0		-0.23178836059570312	5.88666552734375	0		
-0.007627757072448731	-0.004803157806396484	0		0.43466934204101565	-2.34401123046875	0		-0.9106821899414063	0.31659649658203126	0		-0.6144149780273438	-2.671283447265625	0		1.612909912109375	-0.49287258911132814	0		3.211366455078125	0.08730911254882813	0		4.41621533203125	0.17312454223632812	0		5.9321123046875	0.47806100463867185	0		-0.2709285583496094	5.88689599609375	0		
-0.012696234703063965	9.187400341033936E-5	0		0.43455853271484374	-2.34416162109375	0		-0.8998818969726563	0.3073419189453125	0		-0.6125066528320312	-2.669454345703125	0		1.5998704833984374	-0.48490042114257814	0		3.195260986328125	0.08831237030029297	0		4.421025390625	0.16493544006347657	0		5.93691259765625	0.468874755859375	0		-0.2710545349121094	5.886744140625	0		
0.0032659690380096437	0.004772696018218994	0		0.42150250244140625	-2.3422099609375	0		-0.8849300537109375	0.3110289001464844	0		-0.642495849609375	-2.66034912109375	0		1.6228155517578124	-0.4822787170410156	0		3.214037109375	0.07297765350341796	0		4.4138671875	0.15684608459472657	0		5.9409013671875	0.4766880187988281	0		-0.30126913452148435	5.8748515625	0		
0.02922056770324707	0.0043418388366699215	0		0.47642254638671877	-2.3479072265625	0		-0.8909386596679687	0.3148897399902344	0		-0.6035177001953125	-2.659904052734375	0		1.6208668212890625	-0.4724412841796875	0		3.227335205078125	0.10968364715576172	0		4.42495166015625	0.17057830810546876	0		5.94493798828125	0.4854938659667969	0		-0.26629193115234373	5.88033544921875	0		
-0.001730355978012085	0.009419296264648437	0		0.4105382385253906	-2.337501953125	0		-0.9109296264648438	0.31585809326171876	0		-0.5804682006835937	-2.65733203125	0		1.631880859375	-0.47174017333984375	0		3.213104736328125	0.08463037872314454	0		4.415970703125	0.17248709106445312	0		5.944935546875	0.48533148193359377	0		-0.27128158569335936	5.88616943359375	0		
0.018180500030517577	-0.005997196197509765	0		0.4635470886230469	-2.3452197265625	0		-0.9108823852539063	0.3156162414550781	0		-0.6493118286132813	-2.648931884765625	0		1.60700244140625	-0.46472341918945315	0		3.212265625	0.0964418487548828	0		4.42094482421875	0.16425688171386718	0		5.94890673828125	0.47712704467773437	0		-0.10304254913330078	5.91237841796875	0		
-0.007717655181884765	-0.006013568878173828	0		0.4087282409667969	-2.33996240234375	0		-0.9048232421875	0.3112916259765625	0		-0.6121859130859375	-2.65053955078125	0		1.6021558837890626	-0.4599124755859375	0		3.222244384765625	0.08313681030273437	0		4.4090439453125	0.16417108154296875	0		5.9360751953125	0.48507095336914063	0		-0.27127407836914064	5.885673828125	0		
0.013468091011047362	-0.002491964101791382	0		0.4409319763183594	-2.33853564453125	0		-0.8946881713867187	0.3099007568359375	0		-0.6768809204101562	-2.638234375	0		1.5883963623046875	-0.45104269409179687	0		3.207577880859375	0.10304095458984375	0		4.4141171875	0.15591064453125	0		5.945216796875	0.48479742431640627	0		-0.3052713623046875	5.87969921875	0		
0.0037201430797576904	0.0032867910861968993	0		0.41319699096679685	-2.33558349609375	0		-0.9054137573242188	0.318673095703125	0		-0.5996428833007813	-2.639268310546875	0		1.60859033203125	-0.4525130615234375	0		3.222587646484375	0.08264502716064454	0		4.414310546875	0.15567259216308593	0		5.94540478515625	0.48458547973632815	0		-0.30517529296875	5.879380859375	0		
0.01886664962768555	-0.007193863868713379	0		0.43252215576171876	-2.331094482421875	0		-0.9042537841796875	0.31030514526367187	0		-0.6333101196289063	-2.634309814453125	0		1.5949114990234374	-0.4446998291015625	0		3.23299951171875	0.10126547241210937	0		4.40962060546875	0.16345225524902343	0		5.9497177734375	0.49330917358398435	0		-0.27098541259765624	5.88471923828125	0		
-0.011810091018676758	-0.0022830550670623778	0		0.42089434814453125	-2.325350830078125	0		-0.9099462890625	0.31397052001953124	0		-0.6079342041015625	-2.62892431640625	0		1.5951953125	-0.44504571533203124	0		3.21214599609375	0.08714141082763673	0		4.40989404296875	0.16315545654296876	0		5.95390283203125	0.4840029296875	0		-0.27180291748046875	5.88535009765625	0		
-0.006550602912902832	-0.007732794761657715	0		0.440092041015625	-2.3419208984375	0		-0.90368310546875	0.3094963073730469	0		-0.6645724487304687	-2.627816650390625	0		1.5825821533203126	-0.4373038024902344	0		3.222513671875	0.09370024871826171	0		4.42305859375	0.1477081298828125	0		5.95419970703125	0.48370028686523436	0		-0.2715884704589844	5.88594140625	0		
8.410900235176086E-4	-0.0012300150394439697	0		0.418541259765625	-2.333145751953125	0		-0.8884066162109375	0.3039118347167969	0		-0.6181305541992187	-2.62068115234375	0		1.5889808349609376	-0.4307659912109375	0		3.20172216796875	0.08051244354248047	0		4.4154482421875	0.1544202117919922	0		5.95059326171875	0.49140072631835935	0		-0.3044282531738281	5.87780615234375	0		
0.008248799324035645	0.005246457099914551	0		0.41202200317382814	-2.322535400390625	0		-0.8839578247070312	0.3154017639160156	0		-0.6476626586914063	-2.611876708984375	0		1.6093306884765626	-0.4313833923339844	0		3.23128271484375	0.10383678436279296	0		4.4157900390625	0.1540289306640625	0		5.95992919921875	0.4909509582519531	0		-0.2890750427246094	5.888205078125	0		
-0.0014969329833984374	-0.006145012855529785	0		0.4363453063964844	-2.33023095703125	0		-0.9086345825195312	0.31213360595703127	0		-0.6133173828125	-2.6176787109375	0		1.5987918701171875	-0.4207432861328125	0		3.19748193359375	0.0867113037109375	0		4.41207861328125	0.14664697265625	0		5.95128564453125	0.49163677978515624	0		-0.27083493041992185	5.8845537109375	0		
-0.0011394180059432983	-0.00664906120300293	0		0.3998279724121094	-2.320392578125	0		-0.9082815551757812	0.3116168212890625	0		-0.619813720703125	-2.606128173828125	0		1.596118896484375	-0.4251973876953125	0		3.22882763671875	0.08497019958496094	0		4.42036962890625	0.13913241577148439	0		5.94263671875	0.4912982177734375	0		-0.2705601501464844	5.8840458984375	0		
-0.014730416297912597	-0.0010434080362319946	0		0.4371214904785156	-2.331243896484375	0		-0.9079320068359376	0.3110830078125	0		-0.6174058227539062	-2.60467626953125	0		1.5805247802734375	-0.42055148315429686	0		3.198190673828125	0.08577509307861328	0		4.40772216796875	0.13879031372070313	0		5.9519833984375	0.4907772827148438	0		-0.23722535705566405	5.890220703125	0		
0.0025950729846954345	-0.0037315149307250977	0		0.41356256103515626	-2.324554443359375	0		-0.8975198364257813	0.3184456176757812	0		-0.6380336303710937	-2.606028076171875	0		1.5869381103515625	-0.4141180725097656	0		3.21965087890625	0.0980945816040039	0		4.41399169921875	0.13026345825195312	0		5.95232080078125	0.490325927734375	0		-0.2559255676269531	5.89385595703125	0		
-0.0029657158851623534	0.007781429767608643	0		0.4329788818359375	-2.31926171875	0		-0.897194091796875	0.31789212036132813	0		-0.6445579223632812	-2.59451513671875	0		1.587274169921875	-0.41463681030273436	0		3.20379931640625	0.07774443054199219	0		4.4134560546875	0.14479275512695314	0		5.95671630859375	0.49783175659179685	0		-0.27076776123046875	5.88344775390625	0		
-0.005680239200592041	0.004265942096710205	0		0.4033164367675781	-2.320527099609375	0		-0.9019219360351562	0.31338211059570314	0		-0.608228271484375	-2.597392333984375	0		1.600519775390625	-0.4232742919921875	0		3.2301640625	0.08301168060302734	0		4.4095771484375	0.12334944915771484	0		5.9480224609375	0.49745458984375	0		-0.27053829956054687	5.88290087890625	0		
-0.0014335219860076905	-0.001309854030609131	0		0.42960433959960936	-2.325295654296875	0		-0.9065889892578125	0.31787442016601564	0		-0.6438796997070313	-2.595615966796875	0		1.575882080078125	-0.4165659484863281	0		3.19946533203125	0.08379759979248047	0		4.4098671875	0.12287232208251953	0		5.9483076171875	0.49699935913085935	0		-0.27132077026367185	5.8833662109375	0		
